<svg width="1717" height="607" viewBox="0 0 1717 607" fill="none" xmlns="http://www.w3.org/2000/svg">
<path fill-rule="evenodd" clip-rule="evenodd" d="M119.139 272.669L0.618164 293.568L55.8262 606.668L1289.64 389.112L1290.88 392.787H1295.44L1296.97 387.82L1383.46 372.571L1390.29 392.787H1394.84L1402.18 369.27L1533.13 346.179C1535.55 347.716 1538.1 349.295 1540.75 350.917C1556.13 360.221 1567.34 368.576 1574.36 375.982C1581.58 383.387 1585.19 392.407 1585.19 403.04C1585.19 415.573 1581.58 425.067 1574.36 431.523C1567.15 437.789 1558.41 440.922 1548.16 440.922C1531.26 440.922 1518.73 434.941 1510.56 422.978C1502.4 411.015 1497.65 395.445 1496.32 376.267H1489.77C1489.77 411.395 1489.39 434.181 1488.63 444.625H1495.18C1495.75 440.258 1496.51 437.125 1497.46 435.226C1498.41 433.137 1499.74 432.093 1501.45 432.093C1503.73 432.093 1506.95 433.422 1511.13 436.08C1516.45 439.308 1521.96 441.872 1527.65 443.77C1533.54 445.669 1541.04 446.619 1550.15 446.619C1567.62 446.619 1582.05 441.967 1593.45 432.662C1604.84 423.168 1610.54 409.781 1610.54 392.502C1610.54 382.818 1608.45 374.368 1604.27 367.152C1600.09 359.937 1594.49 353.575 1587.47 348.069C1584.01 345.189 1579.9 342.09 1575.13 338.773L1716.38 313.867L1661.17 0.76709L582.206 191.018V189.705C576.51 190.275 568.44 190.56 557.996 190.56C546.983 190.56 536.064 190.275 525.241 189.705V195.402C531.661 195.505 536.331 196.569 539.25 198.593L468.943 210.989C469.227 208.184 469.669 205.931 470.269 204.231C471.409 201.003 473.497 198.82 476.536 197.68C479.764 196.541 484.796 195.781 491.631 195.402V189.705C482.707 190.275 470.649 190.56 455.458 190.56C439.128 190.56 426.976 190.275 419.001 189.705V195.402C425.836 195.781 430.773 196.541 433.812 197.68C437.04 198.82 439.223 201.003 440.363 204.231C441.27 206.803 441.816 210.639 442.001 215.74L330.351 235.427L318.802 205.655H314.245L300.67 240.661L198.691 258.642C198.814 252.31 199.071 246.421 199.46 240.974H192.909L192.054 246.671C191.443 251.869 190.646 256.39 189.666 260.234L145.627 267.999V208.504C145.627 201.288 146.197 196.066 147.336 192.838C148.476 189.61 150.564 187.522 153.603 186.572C156.831 185.433 161.863 184.863 168.698 184.863H186.642C198.415 184.863 207.15 186.572 212.846 189.99C218.543 193.218 222.531 198.44 224.809 205.655C227.088 212.681 228.987 223.505 230.506 238.126H237.057C236.487 232.049 236.202 224.264 236.202 214.77C236.202 203.947 236.867 191.794 238.196 178.312C226.423 178.882 206.58 179.167 178.667 179.167C142.209 179.167 114.676 178.882 96.0676 178.312V184.009C102.903 184.388 107.84 185.148 110.879 186.287C114.107 187.427 116.29 189.61 117.43 192.838C118.569 196.066 119.139 201.288 119.139 208.504V272.669ZM119.139 272.669V349.778C119.139 356.993 118.569 362.215 117.43 365.443C116.29 368.671 114.107 370.855 110.879 371.994C107.84 373.134 102.903 373.893 96.0676 374.273V379.969C104.043 379.4 116.195 379.115 132.525 379.115C150.564 379.115 164.521 379.4 174.395 379.969V374.273C165.85 373.893 159.679 373.134 155.881 371.994C152.083 370.855 149.425 368.671 147.906 365.443C146.387 362.215 145.627 356.993 145.627 349.778V284.268H166.42C174.015 284.268 179.902 286.261 184.079 290.249C188.446 294.237 191.105 300.218 192.054 308.193C193.004 315.978 193.573 320.536 193.763 321.865H200.314C199.175 304.585 198.605 291.103 198.605 281.419V267.748C198.605 264.617 198.634 261.582 198.691 258.642L189.666 260.234C189.428 261.164 189.18 262.055 188.921 262.906C187.782 267.083 185.408 270.786 181.8 274.014C178.193 277.052 173.066 278.571 166.42 278.571H145.627V267.999L119.139 272.669ZM300.67 240.661L247.31 378.26C241.804 392.502 234.303 400.762 224.809 403.04V408.737C230.506 408.167 237.626 407.882 246.171 407.882C257.184 407.882 268.103 408.167 278.926 408.737V403.04C270.571 402.85 264.305 401.426 260.128 398.768C256.14 396.109 254.146 391.837 254.146 385.951C254.146 380.634 256.045 372.849 259.843 362.595L271.521 332.403H340.449L357.823 379.115C360.102 384.811 361.241 389.274 361.241 392.502C361.241 396.299 359.627 398.958 356.399 400.477C353.361 401.806 348.234 402.66 341.018 403.04V408.737C348.993 408.167 361.146 407.882 377.476 407.882C390.198 407.882 400.357 408.167 407.952 408.737V403.04C399.408 402.66 392.857 396.584 388.3 384.811L353.551 295.233L330.351 235.427L300.67 240.661ZM442.001 215.74C442.048 217.043 442.072 218.429 442.072 219.897V361.171C442.072 368.386 441.502 373.608 440.363 376.836C439.223 380.064 437.04 382.248 433.812 383.387C430.773 384.527 425.836 385.286 419.001 385.666V391.362C426.976 390.793 439.128 390.508 455.458 390.508C470.839 390.508 482.897 390.793 491.631 391.362V385.666C484.796 385.286 479.764 384.527 476.536 383.387C473.497 382.248 471.409 380.064 470.269 376.836C469.13 373.608 468.56 368.386 468.56 361.171V289.395C475.396 289.774 480.713 291.293 484.511 293.952C488.308 296.42 492.961 301.832 498.467 310.187L540.052 372.849C541.951 375.507 542.9 377.786 542.9 379.685C542.9 381.583 541.856 383.007 539.767 383.957C537.678 384.906 534.355 385.476 529.798 385.666V391.362C539.102 390.793 548.881 390.508 559.135 390.508C572.807 390.508 584.2 390.793 593.314 391.362V385.666C587.618 384.337 582.776 382.343 578.788 379.685C574.991 376.836 571.478 373.039 568.25 368.291L502.17 275.723L548.597 216.194C553.724 209.548 559.04 204.706 564.547 201.668C570.054 198.44 575.94 196.351 582.206 195.402V191.018L539.25 198.593C541.683 200.28 542.9 202.634 542.9 205.655C542.9 211.922 538.058 221.036 528.374 232.999L501.031 267.748C493.245 277.812 482.422 283.128 468.56 283.698V219.897C468.56 216.481 468.688 213.512 468.943 210.989L442.001 215.74ZM1575.13 338.773C1570.47 335.53 1565.18 332.077 1559.27 328.416L1551.01 323.289C1541.51 317.402 1534.2 312.56 1529.08 308.763C1523.95 304.965 1519.68 300.408 1516.26 295.091C1513.03 289.774 1511.42 283.508 1511.42 276.292C1511.42 266.608 1514.64 258.728 1521.1 252.652C1527.56 246.386 1535.91 243.253 1546.17 243.253C1560.79 243.253 1571.89 248.569 1579.49 259.203C1587.28 269.646 1591.74 282.559 1592.88 297.939H1599.43C1599.43 270.216 1599.9 250.848 1600.85 239.835H1594.3C1593.73 244.202 1592.97 247.43 1592.02 249.519C1591.07 251.418 1589.74 252.367 1588.03 252.367C1585.76 252.367 1582.53 251.038 1578.35 248.379C1573.22 244.962 1568.19 242.398 1563.26 240.689C1558.51 238.79 1551.96 237.841 1543.6 237.841C1528.41 237.841 1515.69 242.113 1505.44 250.658C1495.18 259.013 1490.05 271.166 1490.05 287.116C1490.05 297.18 1492.24 306.009 1496.61 313.605C1500.97 321.01 1506.57 327.371 1513.41 332.688C1518.77 336.743 1525.34 341.24 1533.13 346.179L1575.13 338.773ZM1402.18 369.27L1448.68 220.182C1453.04 206.13 1460.54 197.87 1471.18 195.402V189.705C1465.48 190.275 1458.36 190.56 1449.82 190.56C1438.8 190.56 1427.88 190.275 1417.06 189.705V195.402C1425.61 195.592 1431.78 197.016 1435.57 199.674C1439.37 202.143 1441.27 206.51 1441.27 212.776C1441.27 218.852 1439.75 226.543 1436.71 235.847L1401.68 346.075L1360.67 219.327C1358.77 213.631 1357.82 209.073 1357.82 205.655C1357.82 201.668 1359.24 199.104 1362.09 197.965C1364.94 196.636 1369.97 195.781 1377.19 195.402V189.705C1369.21 190.275 1357.06 190.56 1340.73 190.56C1329.14 190.56 1319.94 190.275 1313.1 189.705V195.402C1320.51 195.781 1326.11 201.858 1329.9 213.631L1337.59 236.132L1302.85 346.36L1261.26 219.327C1259.17 213.061 1258.13 208.409 1258.13 205.371C1258.13 202.143 1259.17 199.769 1261.26 198.25C1263.35 196.731 1266.96 195.781 1272.08 195.402V189.705C1265.25 190.275 1255 190.56 1241.32 190.56C1228.79 190.56 1218.63 190.275 1210.85 189.705V195.402C1219.96 195.781 1226.51 201.858 1230.5 213.631L1289.64 389.112L1296.97 387.82L1340.73 246.101L1383.46 372.571L1402.18 369.27ZM1193.37 357.184C1192.04 343.702 1191.37 331.549 1191.37 320.726C1191.37 312.181 1191.66 305.345 1192.23 300.219H1185.68C1184.35 313.7 1182.26 323.954 1179.41 330.98C1176.56 337.816 1172 342.848 1165.74 346.076C1159.66 349.114 1150.74 350.633 1138.96 350.633H1118.17C1111.34 350.633 1106.3 350.158 1103.08 349.209C1100.04 348.069 1097.95 345.886 1096.81 342.658C1095.67 339.43 1095.1 334.208 1095.1 326.992V258.634H1113.9C1121.49 258.634 1127.38 260.628 1131.56 264.615C1135.93 268.603 1138.58 274.584 1139.53 282.559C1140.48 290.345 1141.05 294.902 1141.24 296.231H1147.79C1146.65 278.951 1146.08 265.47 1146.08 255.786V242.114C1146.08 232.24 1146.37 223.315 1146.94 215.34H1140.39L1139.53 221.037C1138.77 227.493 1137.73 232.905 1136.4 237.272C1135.26 241.449 1132.89 245.152 1129.28 248.38C1125.67 251.418 1120.55 252.937 1113.9 252.937H1095.1V185.718C1095.1 178.503 1095.67 173.281 1096.81 170.053C1097.95 166.825 1100.04 164.736 1103.08 163.787C1106.3 162.647 1111.34 162.078 1118.17 162.078H1141.81C1151.88 162.078 1159.38 163.502 1164.31 166.35C1169.25 169.009 1172.76 173.376 1174.85 179.452C1176.94 185.339 1178.65 194.453 1179.98 206.795H1186.53C1185.96 202.428 1185.68 196.542 1185.68 189.136C1185.68 179.262 1186.34 168.059 1187.67 155.527C1175.9 156.096 1156.05 156.381 1128.14 156.381C1091.68 156.381 1064.15 156.096 1045.54 155.527V161.223C1052.38 161.603 1057.31 162.363 1060.35 163.502C1063.58 164.641 1065.76 166.825 1066.9 170.053C1068.04 173.281 1068.61 178.503 1068.61 185.718V326.992C1068.61 334.208 1068.04 339.43 1066.9 342.658C1065.76 345.886 1063.58 348.069 1060.35 349.209C1057.31 350.348 1052.38 351.108 1045.54 351.487V357.184C1064.15 356.614 1091.68 356.329 1128.14 356.329C1158.71 356.329 1180.45 356.614 1193.37 357.184ZM306.27 241.544L338.17 326.707H273.799L306.27 241.544ZM753.465 419.275C752.136 405.794 751.471 393.641 751.471 382.818C751.471 374.273 751.756 367.437 752.325 362.31H745.774C744.445 375.792 742.356 386.046 739.508 393.071C736.66 399.907 732.103 404.939 725.837 408.167C719.76 411.205 710.836 412.724 699.063 412.724H678.271C671.435 412.724 666.403 412.25 663.175 411.3C660.137 410.161 658.048 407.977 656.909 404.749C655.769 401.521 655.2 396.299 655.2 389.084V320.725H673.998C681.594 320.725 687.48 322.719 691.657 326.707C696.025 330.694 698.683 336.676 699.633 344.651C700.582 352.436 701.152 356.993 701.341 358.323H707.893C706.753 341.043 706.184 327.561 706.184 317.877V304.205C706.184 294.332 706.468 285.407 707.038 277.432H700.487L699.633 283.128C698.873 289.584 697.829 294.996 696.499 299.363C695.36 303.541 692.987 307.244 689.379 310.472C685.771 313.51 680.644 315.029 673.998 315.029H655.2V247.81C655.2 240.594 655.769 235.372 656.909 232.144C658.048 228.916 660.137 226.828 663.175 225.878C666.403 224.739 671.435 224.169 678.271 224.169H701.911C711.975 224.169 719.475 225.593 724.412 228.442C729.349 231.1 732.862 235.467 734.951 241.544C737.04 247.43 738.749 256.545 740.078 268.887H746.629C746.059 264.52 745.774 258.633 745.774 251.228C745.774 241.354 746.439 230.151 747.768 217.618C735.995 218.188 716.152 218.473 688.239 218.473C651.782 218.473 624.248 218.188 605.64 217.618V223.315C612.476 223.694 617.413 224.454 620.451 225.593C623.679 226.733 625.862 228.916 627.002 232.144C628.141 235.372 628.711 240.594 628.711 247.81V389.084C628.711 396.299 628.141 401.521 627.002 404.749C625.862 407.977 623.679 410.161 620.451 411.3C617.413 412.44 612.476 413.199 605.64 413.579V419.275C624.248 418.706 651.782 418.421 688.239 418.421C718.811 418.421 740.553 418.706 753.465 419.275ZM1029.01 206.795C1022.36 207.175 1017.42 208.219 1014.19 209.928C1010.97 211.447 1008.78 214.105 1007.64 217.903C1006.5 221.511 1005.93 226.923 1005.93 234.138V404.18H999.383L879.756 219.327V369.716C879.756 377.121 880.326 382.628 881.465 386.236C882.794 389.843 885.263 392.502 888.871 394.211C892.479 395.73 898.08 396.679 905.675 397.059V402.755C898.84 402.186 889.156 401.901 876.623 401.901C865.23 401.901 856.401 402.186 850.134 402.755V397.059C856.78 396.679 861.717 395.73 864.945 394.211C868.173 392.502 870.357 389.843 871.496 386.236C872.636 382.438 873.205 376.931 873.205 369.716V231.29C873.205 224.074 872.636 218.852 871.496 215.624C870.357 212.396 868.173 210.213 864.945 209.073C861.907 207.934 856.97 207.175 850.134 206.795V201.098C856.401 201.668 865.23 201.953 876.623 201.953C885.168 201.953 892.573 201.668 898.84 201.098L999.383 356.044V234.138C999.383 226.733 998.719 221.226 997.39 217.618C996.25 214.01 993.877 211.447 990.269 209.928C986.661 208.219 981.059 207.175 973.464 206.795V201.098C980.3 201.668 989.984 201.953 1002.52 201.953C1013.91 201.953 1022.74 201.668 1029.01 201.098V206.795Z" fill="#2B2B2B"/>
<circle cx="104" cy="144" r="8.5" fill="white" stroke="#2B2B2B"/>
<path d="M104.783 152C109.385 159.206 115 177 96.4998 178.5C93.8024 179.701 95.2151 189.5 93.4998 191" stroke="#2B2B2B"/>
<path d="M107.648 157.929C110.636 159.388 117.042 162.611 107.648 166.5" stroke="#2B2B2B"/>
<path d="M106.5 155.5C96.9999 154.5 90.4998 160 95 160" stroke="#2B2B2B"/>
<path d="M96.4998 178.5C96.4998 182.5 96.4998 190.7 96.4998 191.5" stroke="#2B2B2B"/>
<path fill-rule="evenodd" clip-rule="evenodd" d="M1567.02 449.969C1566.04 453.581 1564.68 457.604 1563.18 461.567C1564.32 463.077 1565 464.959 1565 467C1565 471.586 1561.57 475.371 1557.14 475.93L1557.13 476.118C1557.24 476.343 1557.34 476.564 1557.45 476.782L1557.1 476.954C1557.04 478.216 1556.95 479.399 1556.85 480.611C1556.52 485.007 1556.16 489.765 1557.12 499.951L1557.46 499.805C1558.27 501.724 1559.6 504.674 1560.93 507.285C1561.59 508.591 1562.26 509.804 1562.85 510.758C1563.15 511.236 1563.43 511.641 1563.68 511.959C1563.93 512.284 1564.14 512.487 1564.28 512.588L1563.72 513.412C1563.44 513.225 1563.17 512.926 1562.89 512.577C1562.61 512.221 1562.31 511.783 1562 511.288C1561.39 510.299 1560.71 509.056 1560.04 507.738C1558.92 505.549 1557.81 503.13 1557 501.265C1556.19 503.13 1555.08 505.549 1553.96 507.738C1553.29 509.056 1552.62 510.299 1552 511.288C1551.69 511.783 1551.39 512.221 1551.11 512.577C1550.84 512.926 1550.56 513.225 1550.28 513.412L1549.72 512.588C1549.86 512.487 1550.07 512.284 1550.32 511.959C1550.57 511.641 1550.85 511.236 1551.15 510.758C1551.75 509.804 1552.41 508.591 1553.07 507.285C1554.24 504.989 1555.41 502.432 1556.22 500.543L1556.17 500.549C1555.14 489.937 1555.52 484.954 1555.86 480.448C1555.96 479.078 1556.06 477.752 1556.12 476.326C1556.07 476.218 1556.02 476.109 1555.96 476C1551.01 475.981 1547 471.959 1547 467C1547 464.6 1547.94 462.42 1549.47 460.806C1548.52 458.248 1547.66 455.73 1547 453.392C1545.91 449.587 1545.29 446.185 1545.57 443.856C1545.71 442.69 1546.08 441.697 1546.84 441.092C1547.62 440.473 1548.67 440.355 1549.93 440.667L1549.69 441.637C1548.6 441.367 1547.91 441.52 1547.47 441.874C1547.01 442.24 1546.69 442.921 1546.56 443.975C1546.31 446.088 1546.87 449.319 1547.96 453.118C1548.58 455.309 1549.38 457.665 1550.26 460.066C1551.82 458.776 1553.82 458 1556 458C1558.52 458 1560.8 459.036 1562.43 460.705C1563.85 456.934 1565.13 453.131 1566.05 449.709C1567.14 445.67 1567.7 442.234 1567.43 440.012C1567.3 438.899 1566.97 438.197 1566.5 437.835C1566.05 437.49 1565.36 437.358 1564.24 437.697L1563.95 436.74C1565.23 436.351 1566.31 436.423 1567.11 437.044C1567.89 437.649 1568.28 438.677 1568.43 439.891C1568.72 442.323 1568.11 445.925 1567.02 449.969Z" fill="#2B2B2B"/>
<circle cx="1556" cy="467" r="8.5" fill="white" stroke="#2B2B2B"/>
<path d="M92.3944 167.515L96.6843 157.599L102.026 162.142L98.5493 170.178L96.1557 169.142L92.3944 167.515Z" stroke="#2B2B2B"/>
<path d="M104.533 172.766L108.823 162.85L102.196 162.216L98.7202 170.251L100.981 171.229L104.533 172.766Z" stroke="#2B2B2B"/>
</svg>
